<svg aria-hidden="true" xmlns="http://www.w3.org/2000/svg">
  <defs>

    <!--Logo-->
    <symbol id="Logo" viewBox="0 0 64 32">
  <path fill="#fff" style="fill: var(--color1, #fff)" d="M19.921 24.083c-0.599-1.666-1.833-2.5-3.701-2.5h-0.589v10.278h0.589c1.444 0 2.509-0.569 3.196-1.707 0.579-0.971 0.869-2.207 0.869-3.708-0.001-0.893-0.123-1.68-0.364-2.363z"></path>
  <path fill="#fff" style="fill: var(--color1, #fff)" d="M9.807 24.206c0.6 1.666 1.833 2.499 3.7 2.499h0.589v-10.278h-0.589c-1.444 0-2.509 0.569-3.196 1.707-0.577 0.971-0.866 2.207-0.867 3.708 0 0.892 0.121 1.68 0.363 2.364z"></path>
  <path fill="#fff" style="fill: var(--color1, #fff)" d="M0 0.013h7.842v2.722h-5.027v1.361h4.176v2.583h-4.176v1.377h5.027v2.722h-7.842v-10.765z"></path>
  <path fill="#fff" style="fill: var(--color1, #fff)" d="M11.785 0h10.146l-5.073 10.997-5.073-10.997zM16.858 9.636l4.191-9.063h-8.367l4.176 9.063z"></path>
  <path fill="#fff" style="fill: var(--color1, #fff)" d="M25.983 0.013h7.842v2.722h-5.027v1.361h4.176v2.583h-4.176v1.377h5.027v2.722h-7.842v-10.765z"></path>
  <path fill="#fff" style="fill: var(--color1, #fff)" d="M38.651 10.762v-10.762h0.603l7.517 7.316v-7.316h0.572v10.765l-8.692-0.003z"></path>
  <path fill="#fff" style="fill: var(--color1, #fff)" d="M55.556 10.778v-8.043h-4.068v-2.722h8.692v2.722h-4.068v8.043h-0.557z"></path>
  <path fill="#fff" style="fill: var(--color1, #fff)" d="M4.624 18.573c0.681 0 1.222 0.103 1.624 0.309 0.462 0.225 0.85 0.578 1.119 1.016s0.406 0.944 0.397 1.458c0.003 0.495-0.137 0.981-0.402 1.4-0.27 0.429-0.649 0.779-1.098 1.013 0.558 0.197 1.047 0.552 1.407 1.021 0.374 0.464 0.576 1.043 0.572 1.639 0.004 0.521-0.138 1.033-0.41 1.477-0.266 0.441-0.642 0.806-1.090 1.059-0.238 0.128-0.493 0.222-0.758 0.278-0.278 0.062-0.65 0.093-1.114 0.093h-4.764v-10.765h4.516z"></path>
  <path fill="#fff" style="fill: var(--color1, #fff)" d="M22.759 28.557c-0.809-0.706-1.209-1.766-1.199-3.178h2.521c-0.010 0.588 0.165 1.036 0.526 1.346s0.866 0.464 1.516 0.464c0.536 0 0.959-0.088 1.268-0.263s0.464-0.443 0.464-0.804c0-0.299-0.157-0.516-0.472-0.65-0.3-0.13-0.614-0.226-0.936-0.286-0.309-0.057-0.5-0.091-0.572-0.103-0.701-0.13-1.389-0.319-2.057-0.567-0.561-0.209-1.061-0.554-1.454-1.005-0.392-0.454-0.588-1.052-0.588-1.794s0.196-1.374 0.588-1.895c0.392-0.521 0.915-0.91 1.57-1.168 0.683-0.263 1.41-0.394 2.142-0.387 0.938 0 1.75 0.175 2.436 0.526s1.224 0.882 1.616 1.593c0.182 0.301 0.303 0.635 0.356 0.982 0.041 0.305 0.061 0.613 0.062 0.92h-2.521c0-0.557-0.149-0.967-0.448-1.23s-0.763-0.394-1.392-0.394c-0.505 0-0.897 0.088-1.175 0.263s-0.418 0.412-0.418 0.712c0 0.33 0.186 0.572 0.557 0.727 0.456 0.18 0.927 0.32 1.407 0.418 0.928 0.186 1.652 0.363 2.173 0.534 0.525 0.173 0.993 0.486 1.353 0.905 0.381 0.433 0.572 1.041 0.572 1.825 0 0.742-0.206 1.382-0.619 1.918s-0.956 0.946-1.632 1.23c-0.694 0.287-1.438 0.432-2.189 0.425-1.495-0.002-2.647-0.356-3.457-1.062z"></path>
  <path fill="#fff" style="fill: var(--color1, #fff)" d="M36.996 29.338v-8.043h-4.068v-2.722h8.692v2.722h-4.068v8.043h-0.557z"></path>
  <path fill="#fff" style="fill: var(--color1, #fff)" d="M44.543 18.573h7.842v2.722h-5.027v1.361h4.176v2.583h-4.176v1.377h5.027v2.722h-7.842v-10.765z"></path>
  <path fill="#fff" style="fill: var(--color1, #fff)" d="M64 29.338h-8.275v-10.765h4.191c0.897 0 1.629 0.16 2.196 0.48 0.542 0.295 0.992 0.734 1.299 1.268 0.311 0.541 0.471 1.155 0.464 1.779 0.007 0.783-0.255 1.545-0.742 2.158-0.467 0.616-1.125 1.059-1.871 1.261l2.738 3.82zM56.298 19.516v5.552h3.975l-3.975-5.553zM56.298 28.765h6.62l-2.258-3.14-0.48 0.015h-3.882v3.124zM56.7 19.145l4.207 5.877c0.675-0.135 1.283-0.502 1.717-1.036 0.447-0.527 0.688-1.197 0.681-1.887 0.006-0.544-0.138-1.079-0.418-1.547-0.278-0.464-0.687-0.835-1.175-1.067-0.454-0.227-1.047-0.34-1.779-0.34h-3.233z"></path>
  </symbol>

    <!--Search-->
    <symbol id="Lupa" viewBox="0 0 32 32">
      <path d="M4.024 4.024C6.619 1.429 10.069 0 13.739 0s7.12 1.429 9.715 4.024a13.649 13.649 0 0 1 4.024 9.715 13.64 13.64 0 0 1-3.383 9.029l7.63 7.63a.94.94 0 0 1-1.327 1.327l-7.63-7.63a13.635 13.635 0 0 1-9.029 3.383c-3.67 0-7.12-1.429-9.715-4.024S0 17.409 0 13.739s1.429-7.12 4.024-9.715zm1.327 18.103c4.625 4.625 12.15 4.625 16.775 0s4.625-12.15 0-16.775c-2.313-2.313-5.35-3.469-8.388-3.469S7.662 3.04 5.35 5.352c-4.625 4.625-4.625 12.15 0 16.775z"/>
    </symbol>
    <symbol id="Strilka" viewBox="0 0 52 32">
      <path  d="M26 32 .019 2h51.962L26 32z"/>
    </symbol>

    <!--Map-->
    <symbol id = "mo">
<svg width="7" height="10" viewBox="0 0 7 10" fill="none" xmlns="http://www.w3.org/2000/svg">
<path d="M3.5 0C1.57011 0 0 1.55933 0 3.47595C0 5.88495 3.50344 10 3.50344 10C3.50344 10 7 5.76648 7 3.47595C7 1.55933 5.42995 0 3.5 0ZM4.55602 4.49371C4.26484 4.78284 3.88245 4.92743 3.5 4.92743C3.11761 4.92743 2.7351 4.78284 2.44404 4.49371C1.86173 3.91547 1.86173 2.97455 2.44404 2.39624C2.72601 2.11609 3.10108 1.96179 3.5 1.96179C3.89892 1.96179 4.27393 2.11615 4.55602 2.39624C5.13833 2.97455 5.13833 3.91547 4.55602 4.49371Z" fill="white"/>
</svg>
<symbol/>

    <!--Modal-->
    <symbol id="Ticket" viewBox="0 0 44 32">
      <path d="M4.91 1.27H0v29.46h4.91V1.27zM17.26 1.27h-4.91v29.46h4.91V1.27zM24.699 1.27h-4.91v29.46h4.91V1.27zM44.19 1.27h-7.291v29.46h7.291V1.27zM9.82 1.27H7.439v29.46H9.82V1.27zM29.46 1.27h-2.381v29.46h2.381V1.27zM34.37 1.27h-2.381v29.46h2.381V1.27z"/>
    </symbol>
    <symbol id="icon-Close" viewBox="0 0 32 32">
      <path fill="#4c00fe" style="fill:var(--color4, #4c00fe)" d="M1.646 32a1.646 1.646 0 0 1-1.163-2.811L29.19.482a1.646 1.646 0 1 1 2.328 2.329L2.811 31.517A1.65 1.65 0 0 1 1.646 32z"/>
      <path fill="#4c00fe" style="fill:var(--color4, #4c00fe)" d="M30.355 32a1.63 1.63 0 0 1-1.163-.483L.483 2.811A1.647 1.647 0 0 1 2.812.482l28.707 28.707A1.646 1.646 0 0 1 30.356 32z"/>
    </symbol>
  </defs>
</svg>
